<?xml version="1.0" standalone="no"?>
<svg xmlns="http://www.w3.org/2000/svg" viewBox="0 0 166.76000000000002 159.20484504691606" width="166.76000000000002" height="159.20484504691606"><rect fill="#353434" width="166.76000000000002" height="159.20484504691606" x="0" y="0"></rect><g fill="white" color="white" transform="translate(58.381 12) scale(1.5625)"><svg width="32.0" height="28.0" x="0.0" y="0.0" viewBox="0 0 32 28"><path fill-rule="evenodd" clip-rule="evenodd" d="M4 5C4 4.44772 4.44772 4 5 4H27C27.5523 4 28 4.44772 28 5V9.99699C28 9.99903 28 10.0011 28 10.0031V23C28 23.5523 27.5523 24 27 24H5C4.44772 24 4 23.5523 4 23V5ZM6 12.8946V22H26V12.4434L20.8307 17.7011C20.4672 18.0708 19.8814 18.1014 19.4814 17.7714L9.29468 9.36949L6 12.8946ZM26 9.59074L20.047 15.6455L9.84218 7.22855C9.43466 6.89243 8.83601 6.93124 8.47531 7.31717L6 9.96557V6H26V9.59074Z" fill="currentColor"></path><path fill-rule="evenodd" clip-rule="evenodd" d="M0 3C0 1.34315 1.34315 0 3 0H29C30.6569 0 32 1.34315 32 3V25C32 26.6569 30.6569 28 29 28H3C1.34315 28 0 26.6569 0 25V3ZM3 2C2.44772 2 2 2.44772 2 3V25C2 25.5523 2.44772 26 3 26H29C29.5523 26 30 25.5523 30 25V3C30 2.44772 29.5523 2 29 2H3Z" fill="currentColor"></path></svg></g><path fill="white" fill-rule="nonzero" d="M30.76 26.48L30.76 26.48L30.76 3.48L18.68 34.20L17.64 34.20L6 4.48L6 26.48Q6 29.64 6.16 31.16L6.16 31.16L9.88 31.64Q10.12 32.36 9.88 33.08L9.88 33.08Q6.44 33 5 33L5 33Q2.60 33 0.16 33.12L0.16 33.12Q0 32.24 0.16 31.64L0.16 31.64L3.80 31.24L3.80 7.68Q3.80 4.52 3.64 3L3.64 3L0.32 2.52Q0.08 1.84 0.32 1.16L0.32 1.16L9.12 1.16L19.16 27.48L29.44 1.16Q30.36 1.20 32.24 1.20L32.24 1.20Q32.64 1.20 38.52 1.08L38.52 1.08Q38.76 1.80 38.52 2.52L38.52 2.52L35.20 3Q35.04 4.52 35.04 7.68L35.04 7.68L35.04 31.24L38.28 31.64Q38.44 32.24 38.28 33.12L38.28 33.12Q35.76 33 32.80 33L32.80 33Q30.64 33 27.28 33.08L27.28 33.08Q27.04 32.08 27.28 31.64L27.28 31.64L30.60 31.16Q30.76 29.64 30.76 26.48ZM48.88 21.28L45.32 31.24L48.56 31.64Q48.72 32.24 48.56 33.12L48.56 33.12Q46.04 33 44.32 33L44.32 33Q43.36 33 40 33.08L40 33.08Q39.76 32.36 40 31.64L40 31.64L42.64 31.16Q43.28 30.20 44.24 27.60L44.24 27.60L54.56 0L55.96 0L67.56 31.24L70.80 31.64Q70.96 32.24 70.80 33.12L70.80 33.12Q68.28 33 65.16 33L65.16 33Q62.84 33 59.48 33.08L59.48 33.08Q59.24 32.36 59.48 31.64L59.48 31.64L62.80 31.16L59.28 21.28L48.88 21.28ZM54.20 6.04L54.20 6.04L54.16 6.04Q53.68 7.92 52.60 10.96L52.60 10.96L49.60 19.28L58.56 19.28L55.64 10.96Q54.80 8.52 54.20 6.04ZM96.16 33L77.60 33L71.88 33.12Q71.64 32.40 71.88 31.68L71.88 31.68L75.20 31.24Q75.36 29.20 75.36 26.52L75.36 26.52L75.36 2.92L72.12 2.52Q71.96 1.92 72.12 1.04L72.12 1.04Q74.32 1.20 77.60 1.20L77.60 1.20Q80.52 1.20 83.12 1.08L83.12 1.08Q83.36 1.80 83.12 2.52L83.12 2.52L79.80 3Q79.64 4.52 79.64 7.68L79.64 7.68L79.64 30.96L92.84 30.96L94.72 23.72Q95.32 23.56 96.20 23.72L96.20 23.72L96.16 33ZM106.80 7.68L106.80 7.68L106.80 31.24L110.04 31.64Q110.20 32.24 110.04 33.12L110.04 33.12Q107.52 33 104.56 33L104.56 33Q102.40 33 99.04 33.08L99.04 33.08Q98.80 32.36 99.04 31.64L99.04 31.64L102.36 31.16Q102.52 29.64 102.52 26.48L102.52 26.48L102.52 2.92L99.28 2.52Q99.12 1.92 99.28 1.04L99.28 1.04Q101.48 1.20 104.76 1.20L104.76 1.20Q107.68 1.20 110.28 1.08L110.28 1.08Q110.52 1.80 110.28 2.52L110.28 2.52L106.96 3Q106.80 4.52 106.80 7.68ZM133.68 6.56L126.80 14.88L136.04 27.12Q137.76 29.56 139.40 31.20L139.40 31.20L142.52 31.52Q142.68 32.20 142.56 33L142.56 33Q136.56 32.88 135.12 32.88L135.12 32.88Q132.16 32.88 130.36 33.04L130.36 33.04Q130.12 32.36 130.32 31.60L130.32 31.60L133.60 31.04Q133.24 30.28 130.76 26.80L130.76 26.80L124.04 17.56L121.76 17.56L121.76 31.24L125 31.64Q125.16 32.24 125 33.12L125 33.12Q122.48 33 119.52 33L119.52 33Q117.36 33 114 33.08L114 33.08Q113.76 32.36 114 31.64L114 31.64L117.32 31.16Q117.48 29.64 117.48 26.48L117.48 26.48L117.48 2.92L114.24 2.52Q114.08 1.92 114.24 1.04L114.24 1.04Q116.44 1.20 119.72 1.20L119.72 1.20Q122.64 1.20 125.24 1.08L125.24 1.08Q125.48 1.80 125.24 2.52L125.24 2.52L121.92 3Q121.76 4.52 121.76 7.68L121.76 7.68L121.76 15.52L123.88 15.52L134 2.92L130.76 2.52Q130.60 1.92 130.76 1.04L130.76 1.04Q132.96 1.20 135.36 1.20L135.36 1.20Q137.44 1.20 140 1.08L140 1.08Q140.24 1.80 140 2.52L140 2.52L137.32 3Q135.48 4.44 133.68 6.56L133.68 6.56Z" transform="translate(12 70.75) scale(1.002)"></path><path fill="white" fill-rule="nonzero" d="M8 7.68L8 7.68L8 31.24L11.24 31.64Q11.40 32.24 11.24 33.12L11.24 33.12Q8.72 33 5.76 33L5.76 33Q3.60 33 0.24 33.08L0.24 33.08Q0 32.36 0.24 31.64L0.24 31.64L3.56 31.16Q3.72 29.64 3.72 26.48L3.72 26.48L3.72 2.92L0.48 2.52Q0.32 1.92 0.48 1.04L0.48 1.04Q2.68 1.20 5.96 1.20L5.96 1.20Q8.88 1.20 11.48 1.08L11.48 1.08Q11.72 1.80 11.48 2.52L11.48 2.52L8.16 3Q8 4.52 8 7.68ZM45.68 26.48L45.68 26.48L45.68 3.48L33.60 34.20L32.56 34.20L20.92 4.48L20.92 26.48Q20.92 29.64 21.08 31.16L21.08 31.16L24.80 31.64Q25.04 32.36 24.80 33.08L24.80 33.08Q21.36 33 19.92 33L19.92 33Q17.52 33 15.08 33.12L15.08 33.12Q14.92 32.24 15.08 31.64L15.08 31.64L18.72 31.24L18.72 7.68Q18.72 4.52 18.56 3L18.56 3L15.24 2.52Q15.00 1.84 15.24 1.16L15.24 1.16L24.04 1.16L34.08 27.48L44.36 1.16Q45.28 1.20 47.16 1.20L47.16 1.20Q47.56 1.20 53.44 1.08L53.44 1.08Q53.68 1.80 53.44 2.52L53.44 2.52L50.12 3Q49.96 4.52 49.96 7.68L49.96 7.68L49.96 31.24L53.20 31.64Q53.36 32.24 53.20 33.12L53.20 33.12Q50.68 33 47.72 33L47.72 33Q45.56 33 42.20 33.08L42.20 33.08Q41.96 32.08 42.20 31.64L42.20 31.64L45.52 31.16Q45.68 29.64 45.68 26.48ZM63.80 21.28L60.24 31.24L63.48 31.64Q63.64 32.24 63.48 33.12L63.48 33.12Q60.96 33 59.24 33L59.24 33Q58.28 33 54.92 33.08L54.92 33.08Q54.68 32.36 54.92 31.64L54.92 31.64L57.56 31.16Q58.20 30.20 59.16 27.60L59.16 27.60L69.48 0L70.88 0L82.48 31.24L85.72 31.64Q85.88 32.24 85.72 33.12L85.72 33.12Q83.20 33 80.08 33L80.08 33Q77.76 33 74.40 33.08L74.40 33.08Q74.16 32.36 74.40 31.64L74.40 31.64L77.72 31.16L74.20 21.28L63.80 21.28ZM69.12 6.04L69.12 6.04L69.08 6.04Q68.60 7.92 67.52 10.96L67.52 10.96L64.52 19.28L73.48 19.28L70.56 10.96Q69.72 8.52 69.12 6.04ZM111.64 33.72L111.64 33.72L110.60 30.44Q105.96 33.80 101.64 33.80L101.64 33.80Q97.72 33.80 94.80 32.38Q91.88 30.96 89.96 28.62Q88.04 26.28 87.10 23.30Q86.16 20.32 86.16 17.20L86.16 17.20Q86.16 14.04 87.26 11.02Q88.36 8 90.50 5.64Q92.64 3.28 95.72 1.82Q98.80 0.36 102.76 0.36L102.76 0.36Q108.28 0.36 112.92 2.76L112.92 2.76L112.92 10.44Q112.20 10.56 111.64 10.56L111.64 10.56Q111.04 10.56 110.64 10.44L110.64 10.44L109.36 3.76Q106.80 2.16 102.28 2.16L102.28 2.16Q99.76 2.16 97.72 3.30Q95.68 4.44 94.20 6.38Q92.72 8.32 91.92 10.94Q91.12 13.56 91.12 16.52L91.12 16.52Q91.12 19.68 91.86 22.36Q92.60 25.04 93.96 27Q95.32 28.96 97.26 30.06Q99.20 31.16 101.60 31.16L101.60 31.16Q105.48 31.16 109.24 29.04L109.24 29.04L109.24 20.52L106.00 20.12Q105.92 19.92 105.92 19.48L105.92 19.48Q105.92 19.28 105.92 19.08Q105.92 18.88 106.00 18.64L106.00 18.64Q107.12 18.72 108.46 18.76Q109.80 18.80 111.48 18.80L111.48 18.80Q114.40 18.80 117.00 18.68L117.00 18.68Q117.12 19.04 117.12 19.40L117.12 19.40Q117.12 19.76 117.00 20.12L117.00 20.12L113.68 20.60Q113.60 21.36 113.56 22.52Q113.52 23.68 113.52 25.28L113.52 25.28L113.52 29.32L113.12 33.72Q112.96 33.80 112.80 33.80Q112.64 33.80 112.44 33.80L112.44 33.80Q112.24 33.80 112.04 33.80Q111.84 33.80 111.64 33.72ZM123.24 26.52L123.24 26.52L123.24 2.92L120.00 2.48Q119.76 1.76 120.00 1.04L120.00 1.04L125.48 1.16L141.64 1.16L141.68 10.44Q140.80 10.60 140.20 10.44L140.20 10.44L138.32 3.20L127.52 3.20L127.52 15.20L133.92 15.08L134.84 11.16Q135.44 11 136.32 11.16L136.32 11.16Q136.16 13.40 136.16 16.32L136.16 16.32Q136.16 19 136.28 21.52L136.28 21.52Q135.56 21.76 134.84 21.52L134.84 21.52L133.96 17.36L127.52 17.24L127.52 30.96L139.52 30.96L141.40 23.72Q142.00 23.56 142.88 23.72L142.88 23.72L142.84 33L125.48 33L119.76 33.12Q119.52 32.40 119.76 31.68L119.76 31.68L123.08 31.24Q123.24 29.20 123.24 26.52Z" transform="translate(12 113.005) scale(1)"></path></svg>